<svg xmlns="http://www.w3.org/2000/svg" viewBox="0 0 11156.42 2514.33" role="img" aria-label="Circlists">
  <title>Circlists lockup</title>
  <g transform="translate(0 130.33) scale(49.6667)"><circle cx="24" cy="24" r="22.5" fill="#8bbfad"></circle>
  <circle cx="24" cy="24" r="14.25" fill="#047857"></circle>
  <circle cx="24" cy="24" r="14.925" fill="none" stroke="#ffffff" stroke-width="1.35"></circle></g><g transform="translate(2980.00 -0.00)"><g transform="matrix(1 0 0 -1 28.96 2067.33)">
    <g fill="#fafaf7">
      <path transform="translate(0.00 0)" d="M785.6998901367188 -20Q587.68017578125 -20 431.16046142578125 70.07009887695312Q274.6407470703125 160.14019775390625 184.28094482421875 331.1002197265625Q93.921142578125 502.06024169921875 93.921142578125 744Q93.921142578125 987.479736328125 185.09091186523438 1158.7097473144531Q276.26068115234375 1329.9397583007812 433.0503845214844 1419.9698791503906Q589.840087890625 1510 785.6998901367188 1510Q912.7393188476562 1510 1022.4189453125 1474.5700988769531Q1132.0985717773438 1439.1401977539062 1216.9583740234375 1371.0503845214844Q1301.8181762695312 1302.9605712890625 1356.1281433105469 1204.6308898925781Q1410.4381103515625 1106.3012084960938 1427.1982421875 980.5016479492188H1118.403076171875Q1107.8028564453125 1041.84228515625 1079.5624389648438 1089.5827026367188Q1051.322021484375 1137.3231201171875 1008.5115051269531 1170.8433837890625Q965.7009887695312 1204.3636474609375 910.8504943847656 1221.6637573242188Q856 1238.9638671875 792.1796264648438 1238.9638671875Q675.9989013671875 1238.9638671875 588.2480773925781 1180.9534606933594Q500.49725341796875 1122.9430541992188 452.07666015625 1012.502197265625Q403.65606689453125 902.0613403320312 403.65606689453125 744Q403.65606689453125 583.1588134765625 452.8466491699219 472.9879455566406Q502.0372314453125 362.81707763671875 589.2480773925781 306.9266052246094Q676.4589233398438 251.0361328125 791.0996704101562 251.0361328125Q854.9200439453125 251.0361328125 909.5005493164062 268.5662536621094Q964.0810546875 286.09637451171875 1007.4315490722656 319.3866271972656Q1050.7820434570312 352.6768798828125 1079.5624389648438 400.6473083496094Q1108.3428344726562 448.61773681640625 1119.4830322265625 509.49835205078125H1428.2781982421875Q1415.7579345703125 405.7579345703125 1366.5777587890625 310.89813232421875Q1317.3975830078125 216.038330078125 1234.9676818847656 141.23876953125Q1152.5377807617188 66.439208984375 1039.6182861328125 23.2196044921875Q926.6987915039062 -20 785.6998901367188 -20Z"></path>
      <path transform="translate(1494.52 0)" d="M127.76123046875 0V1118H427.6363525390625V0ZM277.61883544921875 1263.7415161132812Q209.8795166015625 1263.7415161132812 161.53997802734375 1309.0298548591209Q113.200439453125 1354.3181936049602 113.200439453125 1417.7218678491356Q113.200439453125 1482.4194946289062 161.53997802734375 1527.1790771484375Q209.8795166015625 1571.9386596679688 277.61883544921875 1571.9386596679688Q345.6638968331473 1571.9386596679688 394.080575125558 1527.2369319370814Q442.49725341796875 1482.5352042061943 442.49725341796875 1417.7500915527344Q442.49725341796875 1354.2606811523438 394.080575125558 1309.0010986328125Q345.6638968331473 1263.7415161132812 277.61883544921875 1263.7415161132812Z"></path>
      <path transform="translate(2029.04 0)" d="M127.76123046875 0V1118H418.396484375V923.3209228515625H430.396484375Q460.85650634765625 1026.68017578125 533.3367919921875 1079.8001098632812Q605.8170776367188 1132.9200439453125 699.8773193359375 1132.9200439453125Q723.1171875 1132.9200439453125 749.8072204589844 1130.3001098632812Q776.4972534179688 1127.68017578125 796.8170776367188 1122.9003295898438V854.9638671875Q776.9375610351562 861.8236694335938 738.7278137207031 866.0936584472656Q700.51806640625 870.3636474609375 667.2179565429688 870.3636474609375Q598.5574951171875 870.3636474609375 543.9671325683594 840.6434936523438Q489.37677001953125 810.92333984375 458.5065612792969 758.3630981445312Q427.6363525390625 705.8028564453125 427.6363525390625 636.2825927734375V0Z"></path>
      <path transform="translate(2842.56 0)" d="M627.5794067382812 -21.840087890625Q459.38006591796875 -21.840087890625 336.7803955078125 50.429901123046875Q214.18072509765625 122.69989013671875 147.75082397460938 252.42990112304688Q81.3209228515625 382.159912109375 81.3209228515625 554.159912109375Q81.3209228515625 727.5399780273438 147.75082397460938 857.5Q214.18072509765625 987.4600219726562 336.7803955078125 1059.7300109863281Q459.38006591796875 1132 627.5794067382812 1132Q727.4786376953125 1132 811.358154296875 1106.1401977539062Q895.2376708984375 1080.2803955078125 960.137451171875 1032.1407470703125Q1025.0372314453125 984.0010986328125 1066.957275390625 915.1615600585938Q1108.8773193359375 846.322021484375 1124.8576049804688 760.362548828125L846.0219116210938 708.1226806640625Q836.7218017578125 751.6626586914062 817.9315490722656 786.3127136230469Q799.1412963867188 820.9627685546875 772.0109558105469 845.5728454589844Q744.880615234375 870.1829223632812 709.4101867675781 883.06298828125Q673.9397583007812 895.9430541992188 630.8192749023438 895.9430541992188Q550.677978515625 895.9430541992188 496.49725341796875 852.8324279785156Q442.3165283203125 809.7218017578125 414.6062316894531 733.0810546875Q386.89593505859375 656.4403076171875 386.89593505859375 555.2398681640625Q386.89593505859375 455.49945068359375 414.6062316894531 378.5487365722656Q442.3165283203125 301.5980224609375 496.49725341796875 257.9074401855469Q550.677978515625 214.21685791015625 630.8192749023438 214.21685791015625Q674.3997802734375 214.21685791015625 710.3302307128906 227.596923828125Q746.2606811523438 240.97698974609375 774.1210327148438 266.31707763671875Q801.9813842773438 291.65716552734375 820.7716369628906 328.0372314453125Q839.5618896484375 364.41729736328125 848.322021484375 409.41729736328125L1126.6976928710938 357.7174072265625Q1111.1774291992188 269.21795654296875 1069.0273742675781 199.37841796875Q1026.8773193359375 129.53887939453125 962.0175170898438 79.939208984375Q897.15771484375 30.33953857421875 812.5481872558594 4.249725341796875Q727.9386596679688 -21.840087890625 627.5794067382812 -21.840087890625Z"></path>
      <path transform="translate(4027.08 0)" d="M427.6363525390625 1490V0H127.76123046875V1490Z"></path>
      <path transform="translate(4561.60 0)" d="M127.76123046875 0V1118H427.6363525390625V0Z"></path>
      <path transform="translate(5096.12 0)" d="M572.0186157226562 -21.840087890625Q437.0394287109375 -21.840087890625 332.96002197265625 16.789703369140625Q228.880615234375 55.41949462890625 163.05093383789062 128.70919799804688Q97.22125244140625 201.9989013671875 77.76123046875 305.55859375L357.29681396484375 353.57830810546875Q379.13690185546875 275.61773681640625 434.0273742675781 236.66757202148438Q488.9178466796875 197.7174072265625 580.8181762695312 197.7174072265625Q666.4994506835938 197.7174072265625 716.2902526855469 230.4381103515625Q766.0810546875 263.1588134765625 766.0810546875 313.25958251953125Q766.0810546875 357.22015380859375 730.7108459472656 385.1905822753906Q695.3406372070312 413.1610107421875 621.520263671875 428.38116455078125L429.04052734375 468.06134033203125Q267.3209228515625 501.3614501953125 187.38116455078125 580.6412963867188Q107.44140625 659.921142578125 107.44140625 785.4808349609375Q107.44140625 892.8203735351562 166.03121948242188 970.3702087402344Q224.62103271484375 1047.9200439453125 330.00054931640625 1089.9600219726562Q435.38006591796875 1132 576.5191650390625 1132Q709.3384399414062 1132 806.3077697753906 1095.340087890625Q903.277099609375 1058.68017578125 962.9567260742188 991.9704284667969Q1022.6363525390625 925.2606811523438 1043.3165283203125 833.8411865234375L777.1807250976562 786.9813842773438Q759.5805053710938 844.281494140625 711.2102966308594 880.5920104980469Q662.840087890625 916.9025268554688 581.2990112304688 916.9025268554688Q507.21795654296875 916.9025268554688 457.1872863769531 885.7519226074219Q407.1566162109375 854.601318359375 407.1566162109375 803.5005493164062Q407.1566162109375 761.479736328125 439.4671325683594 732.3493957519531Q471.77764892578125 703.2190551757812 550.87841796875 686.6987915039062L751.7371215820312 646.6987915039062Q913.9967041015625 613.9386596679688 993.2064514160156 539.2486267089844Q1072.4161987304688 464.55859375 1072.4161987304688 344.69879150390625Q1072.4161987304688 234.81927490234375 1008.2765502929688 152.3795166015625Q944.1369018554688 69.93975830078125 831.4074401855469 24.049835205078125Q718.677978515625 -21.840087890625 572.0186157226562 -21.840087890625Z"></path>
      <path transform="translate(6222.64 0)" d="M683.3165283203125 1118V889.4830322265625H20V1118ZM173.9605712890625 1384H473.835693359375V327.25848388671875Q473.835693359375 273.85760498046875 497.5859680175781 248.5372314453125Q521.3362426757812 223.21685791015625 575.596923828125 223.21685791015625Q593.1369018554688 223.21685791015625 623.9567260742188 227.48684692382812Q654.7765502929688 231.7568359375 670.8367919921875 235.7568359375L713.7765502929688 10.85980224609375Q663.637451171875 -4 614.3680114746094 -9.809967041015625Q565.0985717773438 -15.61993408203125 519.8389892578125 -15.61993408203125Q351.61993408203125 -15.61993408203125 262.7902526855469 66.00985717773438Q173.9605712890625 147.6396484375 173.9605712890625 300.8389892578125Z"></path>
      <path transform="translate(6952.16 0)" d="M572.0186157226562 -21.840087890625Q437.0394287109375 -21.840087890625 332.96002197265625 16.789703369140625Q228.880615234375 55.41949462890625 163.05093383789062 128.70919799804688Q97.22125244140625 201.9989013671875 77.76123046875 305.55859375L357.29681396484375 353.57830810546875Q379.13690185546875 275.61773681640625 434.0273742675781 236.66757202148438Q488.9178466796875 197.7174072265625 580.8181762695312 197.7174072265625Q666.4994506835938 197.7174072265625 716.2902526855469 230.4381103515625Q766.0810546875 263.1588134765625 766.0810546875 313.25958251953125Q766.0810546875 357.22015380859375 730.7108459472656 385.1905822753906Q695.3406372070312 413.1610107421875 621.520263671875 428.38116455078125L429.04052734375 468.06134033203125Q267.3209228515625 501.3614501953125 187.38116455078125 580.6412963867188Q107.44140625 659.921142578125 107.44140625 785.4808349609375Q107.44140625 892.8203735351562 166.03121948242188 970.3702087402344Q224.62103271484375 1047.9200439453125 330.00054931640625 1089.9600219726562Q435.38006591796875 1132 576.5191650390625 1132Q709.3384399414062 1132 806.3077697753906 1095.340087890625Q903.277099609375 1058.68017578125 962.9567260742188 991.9704284667969Q1022.6363525390625 925.2606811523438 1043.3165283203125 833.8411865234375L777.1807250976562 786.9813842773438Q759.5805053710938 844.281494140625 711.2102966308594 880.5920104980469Q662.840087890625 916.9025268554688 581.2990112304688 916.9025268554688Q507.21795654296875 916.9025268554688 457.1872863769531 885.7519226074219Q407.1566162109375 854.601318359375 407.1566162109375 803.5005493164062Q407.1566162109375 761.479736328125 439.4671325683594 732.3493957519531Q471.77764892578125 703.2190551757812 550.87841796875 686.6987915039062L751.7371215820312 646.6987915039062Q913.9967041015625 613.9386596679688 993.2064514160156 539.2486267089844Q1072.4161987304688 464.55859375 1072.4161987304688 344.69879150390625Q1072.4161987304688 234.81927490234375 1008.2765502929688 152.3795166015625Q944.1369018554688 69.93975830078125 831.4074401855469 24.049835205078125Q718.677978515625 -21.840087890625 572.0186157226562 -21.840087890625Z"></path>
    </g>
    <circle cx="4839.30" cy="1758.20" r="186.25" fill="#047857"></circle>
  </g></g>
</svg>